<svg xmlns="http://www.w3.org/2000/svg" xmlns:xlink="http://www.w3.org/1999/xlink" viewBox="0 0 242.52 71.55"><defs><style>.cls-1{fill:none;}.cls-2{clip-path:url(#clip-path);}.cls-3{fill:#a69c87;}</style><clipPath id="clip-path" transform="translate(-226.98 -215.43)"><rect class="cls-1" width="841.89" height="595.28"/></clipPath></defs><g id="Layer_2" data-name="Layer 2"><g id="Layer_1-2" data-name="Layer 1"><g class="cls-2"><path class="cls-3" d="M248.11,235.06a2,2,0,0,1-2,2H229.2a2.22,2.22,0,0,1-2.22-2.21v-16.7a2.21,2.21,0,0,1,2.21-2.21H245.9a2.21,2.21,0,0,1,2.21,2.21Z" transform="translate(-226.98 -215.43)"/><path class="cls-3" d="M272.79,235.06a2,2,0,0,1-2,2H253.88a2.21,2.21,0,0,1-2.21-2.21v-16.7a2.21,2.21,0,0,1,2.21-2.21h16.7a2.21,2.21,0,0,1,2.21,2.21Z" transform="translate(-226.98 -215.43)"/><path class="cls-3" d="M297.47,235.06a2,2,0,0,1-2,2H278.57a2.21,2.21,0,0,1-2.22-2.21v-16.7a2.21,2.21,0,0,1,2.21-2.21h16.7a2.21,2.21,0,0,1,2.21,2.21Z" transform="translate(-226.98 -215.43)"/><path class="cls-3" d="M245.89,242.84v16.71H229.18V242.84h16.71Zm.19-2.2H229.2a2.23,2.23,0,0,0-2.22,2.22v16.7a2.21,2.21,0,0,0,2.21,2.21H245.9a2.21,2.21,0,0,0,2.21-2.21V242.68a2,2,0,0,0-2-2" transform="translate(-226.98 -215.43)"/><path class="cls-3" d="M295.26,242.84v16.71H278.55V242.84h16.71Zm.19-2.2H278.57a2.22,2.22,0,0,0-2.22,2.22v16.7a2.21,2.21,0,0,0,2.21,2.21h16.7a2.21,2.21,0,0,0,2.21-2.21V242.68a2,2,0,0,0-2-2" transform="translate(-226.98 -215.43)"/><path class="cls-3" d="M272.79,259.56a2.22,2.22,0,0,1-2.21,2.21H253.7a2,2,0,0,1-2-2V242.86a2.22,2.22,0,0,1,2.21-2.22h16.88a2,2,0,0,1,2,2Z" transform="translate(-226.98 -215.43)"/><path class="cls-3" d="M245.9,284.25H229.19V267.54H245.9Zm.18-18.92H229.2a2.23,2.23,0,0,0-2.22,2.21v16.7a2.21,2.21,0,0,0,2.21,2.21h16.89a2,2,0,0,0,2-2V267.36a2,2,0,0,0-2-2" transform="translate(-226.98 -215.43)"/><path class="cls-3" d="M295.27,284.25H278.56V267.54h16.71Zm.18-18.92H278.56a2.22,2.22,0,0,0-2.21,2.21v16.7a2.21,2.21,0,0,0,2.21,2.21h16.89a2,2,0,0,0,2-2V267.36a2,2,0,0,0-2-2" transform="translate(-226.98 -215.43)"/><path class="cls-3" d="M272.79,284.42a2,2,0,0,1-2,2H253.88a2.21,2.21,0,0,1-2.21-2.21V267.36a2,2,0,0,1,2-2h16.88a2.22,2.22,0,0,1,2.21,2.21Z" transform="translate(-226.98 -215.43)"/></g><polygon class="cls-3" points="85.08 0.53 111.58 0.53 111.58 7.36 101.85 7.36 101.85 27.99 94.81 27.99 94.81 7.36 85.08 7.36 85.08 0.53"/><path class="cls-3" d="M352.32,222.37v7.32h8.2a4.75,4.75,0,0,0,1.79-.3,3.26,3.26,0,0,0,1.2-.79,3.13,3.13,0,0,0,.67-1.16,4.55,4.55,0,0,0,.21-1.37,4,4,0,0,0-.88-2.64,3.7,3.7,0,0,0-3-1.06ZM360.9,216a12.22,12.22,0,0,1,4.58.79,8.66,8.66,0,0,1,5.09,5.37,12.08,12.08,0,0,1,.61,3.88,11.94,11.94,0,0,1-.33,2.81,9.82,9.82,0,0,1-1,2.55,9.16,9.16,0,0,1-1.69,2.15,9,9,0,0,1-3.43,1.6l5.95,8.31h-8.42l-5.21-7.36h-4.73v7.36h-7V216Z" transform="translate(-226.98 -215.43)"/><path class="cls-3" d="M402.54,216v15.46a14.22,14.22,0,0,1-.83,4.93,11.31,11.31,0,0,1-2.42,4,11.14,11.14,0,0,1-4,2.66,15.71,15.71,0,0,1-10.87,0,11,11,0,0,1-3.95-2.66,11.25,11.25,0,0,1-2.39-4,14.69,14.69,0,0,1-.81-4.93V216h7v15a6.67,6.67,0,0,0,1.41,4.57,5.25,5.25,0,0,0,4.15,1.59,5.36,5.36,0,0,0,4.21-1.59,6.62,6.62,0,0,0,1.43-4.57V216Z" transform="translate(-226.98 -215.43)"/><polygon class="cls-3" points="182.62 27.99 182.62 0.53 188.6 0.53 200.85 15.88 200.85 0.53 207.86 0.53 207.86 27.99 201.91 27.99 189.66 12.67 189.66 27.99 182.62 27.99"/><polygon class="cls-3" points="85.08 43.56 111.58 43.56 111.58 50.39 101.85 50.39 101.85 71.02 94.81 71.02 94.81 50.39 85.08 50.39 85.08 43.56"/><polygon class="cls-3" points="143.57 43.56 143.57 71.02 136.53 71.02 136.53 60.81 125.33 60.81 125.33 71.02 118.33 71.02 118.33 43.56 125.33 43.56 125.33 54.23 136.53 54.23 136.53 43.56 143.57 43.56"/><g class="cls-2"><path class="cls-3" d="M402.54,259v15.46a14.12,14.12,0,0,1-.83,4.92,11.27,11.27,0,0,1-2.42,4,11.14,11.14,0,0,1-4,2.66,15.71,15.71,0,0,1-10.87,0,11,11,0,0,1-3.95-2.66,11.2,11.2,0,0,1-2.39-4,14.59,14.59,0,0,1-.81-4.92V259h7v15a6.68,6.68,0,0,0,1.41,4.58,5.25,5.25,0,0,0,4.15,1.58,5.35,5.35,0,0,0,4.21-1.58,6.63,6.63,0,0,0,1.43-4.58V259Z" transform="translate(-226.98 -215.43)"/></g><polygon class="cls-3" points="195.21 53.52 201.3 43.56 209.6 43.56 198.73 60.95 198.73 71.02 191.72 71.02 191.72 60.95 180.88 43.56 189.15 43.56 195.21 53.52"/><g class="cls-2"><path class="cls-3" d="M469.45,228.33H454.56v5.85h6.54a7.36,7.36,0,0,1-2.38,2.13,6.87,6.87,0,0,1-3.38.85,7.33,7.33,0,0,1-2.92-.59A7.23,7.23,0,0,1,450,235a7.42,7.42,0,0,1-1.59-2.38,7.64,7.64,0,0,1,0-5.84,7.27,7.27,0,0,1,4-4,7.54,7.54,0,0,1,8.8,2.23l5.73-3.87a14.71,14.71,0,0,0-5-4.17,14.6,14.6,0,0,0-12.22-.44,14.9,14.9,0,0,0-4.62,3.06,14.6,14.6,0,0,0-3.16,4.53,13.83,13.83,0,0,0,0,11.09,14.67,14.67,0,0,0,3.16,4.52,14.9,14.9,0,0,0,4.62,3.06,14.24,14.24,0,0,0,5.64,1.13,12.13,12.13,0,0,0,1.48-.11h0l.2,0c.35-.05.7-.13,1-.21a14.45,14.45,0,0,0,4.51-1.67,13.9,13.9,0,0,0,6.27-7.87,15.38,15.38,0,0,0,.62-5.73" transform="translate(-226.98 -215.43)"/></g></g></g></svg>